<?xml version="1.0" encoding="UTF-8"?>
<!-- Generated by jsxcad -->
<!DOCTYPE svg PUBLIC "-//W3C//DTD SVG 1.1 Tiny//EN" "http://www.w3.org/Graphics/SVG/1.1/DTD/svg11-tiny.dtd">
<svg viewBox="-250 -250 500 500" width="500" height="500" xmlns="http://www.w3.org/2000/svg"><path d="M10.810471365503446,56.501548650848164L50.38610780774998,38.46632759454811L-6.06298421714263e-14,-65.5973275181073z" style="fill:rgb(158,48,222)"/><path d="M-18.334954142397127,86.87198692652538L10.810471365503446,56.501548650848164L-43.55450129478812,-45.45299867832788z" style="fill:rgb(212,85,213)"/><path d="M50.38610780774998,38.46632759454811L91.5346789939869,36.90333264909092L44.51272838035076,-69.36739589097348z" style="fill:rgb(96,32,206)"/><path d="M-29.842097596455314,122.97368659303015L-18.334954142397127,86.87198692652538L-76.6000680606957,-13.460448641137138z" style="fill:rgb(243,133,180)"/><path d="M-41.945897526211816,-86.24374502191216L-80.15308907783772,-62.28263407216507L-111.9271982278202,-32.281744320474566zM42.83392960519372,-110.11978986411569L-3.4183029486224e-14,-102.6099334275108L-41.945897526211816,-86.24374502191216z" style="fill:rgb(83,212,212)"/><path d="M-6.06298421714263e-14,-65.5973275181073L-43.55450129478812,-45.45299867832788L10.810471365503446,56.501548650848164z" style="fill:rgb(158,48,222)"/><path d="M91.5346789939869,36.90333264909092L124.56293156829355,53.00562657843923L79.6142618395785,-54.97418953490016z" style="fill:rgb(42,41,169)"/><path d="M44.51272838035076,-69.36739589097348L-6.06298421714263e-14,-65.5973275181073L50.38610780774998,38.46632759454811z" style="fill:rgb(96,32,206)"/><path d="M-43.55450129478812,-45.45299867832788L-76.6000680606957,-13.460448641137138L-18.334954142397127,86.87198692652538z" style="fill:rgb(212,85,213)"/><path d="M-41.945897526211816,-86.24374502191216L-43.55450129478812,-45.45299867832788L-6.06298421714263e-14,-65.5973275181073z" style="fill:rgb(83,212,212)"/><path d="M-19.46062470271503,156.1246092966564L-29.842097596455314,122.97368659303015L-91.09492734366958,23.548853053189013z" style="fill:rgb(243,180,133)"/><path d="M-41.945897526211816,-86.24374502191216L-111.9271982278202,-32.281744320474566L-145.9753814996788,37.67320586037759zM118.48167464301041,-95.1645379936736L42.83392960519372,-110.11978986411569L-41.945897526211816,-86.24374502191216zM-41.945897526211816,-86.24374502191216L-145.9753814996788,37.67320586037759L-43.55450129478812,-45.45299867832788zM118.48167464301041,-95.1645379936736L-41.945897526211816,-86.24374502191216L-6.06298421714263e-14,-65.5973275181073z" style="fill:rgb(83,212,212)"/><path d="M79.6142618395785,-54.97418953490016L44.51272838035076,-69.36739589097348L91.5346789939869,36.90333264909092z" style="fill:rgb(42,41,169)"/><path d="M-76.6000680606957,-13.460448641137138L-91.09492734366958,23.548853053189013L-29.842097596455314,122.97368659303015z" style="fill:rgb(243,133,180)"/><path d="M-111.9271982278202,-32.281744320474566L-134.67816879450788,1.8371752730898125L-145.9753814996788,37.67320586037759zM118.48167464301041,-95.1645379936736L83.45942342172098,-107.81530582822623L42.83392960519372,-110.11978986411569z" style="fill:rgb(83,212,212)"/><path d="M124.56293156829355,53.00562657843923L140.25154119613464,84.07532910624884L95.38976889323858,-24.445933476451298z" style="fill:rgb(11,74,121)"/><path d="M-145.9753814996788,37.67320586037759L-76.6000680606957,-13.460448641137138L-43.55450129478812,-45.45299867832788zM118.48167464301041,-95.1645379936736L-6.06298421714263e-14,-65.5973275181073L44.51272838035076,-69.36739589097348zM-145.9753814996788,37.67320586037759L-91.09492734366958,23.548853053189013L-76.6000680606957,-13.460448641137138z" style="fill:rgb(83,212,212)"/><path d="M95.38976889323858,-24.445933476451298L79.6142618395785,-54.97418953490016L124.56293156829355,53.00562657843923z" style="fill:rgb(11,74,121)"/><path d="M-43.55450129478812,-45.45299867832788L-3.461728293538274e-14,-65.5973275181073L-52.32132177607789,-173.65782104065087z" style="fill:rgb(158,48,222)"/><path d="M-91.09492734366958,23.548853053189013L-81.83092088497862,56.71597198510507L-19.46062470271503,156.1246092966564z" style="fill:rgb(243,180,133)"/><path d="M118.48167464301041,-95.1645379936736L44.51272838035076,-69.36739589097348L79.6142618395785,-54.97418953490016z" style="fill:rgb(83,212,212)"/><path d="M-76.6000680606957,-13.460448641137138L-43.55450129478812,-45.45299867832788L-99.98231677004642,-151.27613497616693z" style="fill:rgb(212,85,213)"/><path d="M-3.461728293538274e-14,-65.5973275181073L44.51272838035076,-69.36739589097348L-4.499129537447278,-180.1353580337027z" style="fill:rgb(96,32,206)"/><path d="M-81.83092088497862,56.71597198510507L-91.09492734366958,23.548853053189013L-145.9753814996788,37.67320586037759z" style="fill:rgb(83,212,212)"/><path d="M-58.659243119478276,198.70821922345266L-28.399260240963592,220.77433406260843L-95.35880079651749,123.41037880108867z" style="fill:rgb(42,41,169)"/><path d="M154.76961655844016,-1.8874476464705874L195.31522587930448,109.0687242067674L196.39976207828585,71.23490460441039z" style="fill:rgb(245,143,172)"/><path d="M-91.09492734366958,23.548853053189013L-76.6000680606957,-13.460448641137138L-137.2542648311188,-117.90687643473171z" style="fill:rgb(243,133,180)"/><path d="M-52.32132177607789,-173.65782104065087L-99.98231677004642,-151.27613497616693L-43.55450129478812,-45.45299867832788z" style="fill:rgb(158,48,222)"/><path d="M-145.9753814996788,37.67320586037759L-143.77170323754797,72.25792020348749L-126.83531541433973,102.08979320379822zM157.32633086382768,-40.386287232168904L144.28237920270465,-72.30594490445853L118.48167464301041,-95.1645379936736z" style="fill:rgb(83,212,212)"/><path d="M-95.35880079651749,123.41037880108867L-28.399260240963592,220.77433406260843L12.337311277475138,231.63049465350875z" style="fill:rgb(73,33,193)"/><path d="M-105.63636896678716,-210.5142380847679L-148.4008500161931,-184.5348053312386L-184.85628660910322,-153.13716282087606zM-12.794970101922821,-240.01081759565892L-59.43560722800696,-229.46754294192465L-105.63636896678716,-210.5142380847679z" style="fill:rgb(83,212,212)"/><path d="M-4.499129537447278,-180.1353580337027L-52.32132177607789,-173.65782104065087L-3.461728293538274e-14,-65.5973275181073z" style="fill:rgb(96,32,206)"/><path d="M-99.98231677004642,-151.27613497616693L-137.2542648311188,-117.90687643473171L-76.6000680606957,-13.460448641137138z" style="fill:rgb(212,85,213)"/><path d="M-48.88482906874815,76.39924883125904L-81.83092088497862,56.71597198510507L-145.9753814996788,37.67320586037759zM-12.794970101922821,-240.01081759565892L-105.63636896678716,-210.5142380847679L-184.85628660910322,-153.13716282087606z" style="fill:rgb(83,212,212)"/><path d="M44.51272838035076,-69.36739589097348L79.6142618395785,-54.97418953490016L32.46374368908099,-168.24349575429494zM-95.35880079651749,123.41037880108867L-126.83531541433973,102.08979320379822L-58.659243119478276,198.70821922345266z" style="fill:rgb(42,41,169)"/><path d="M196.39976207828585,71.23490460441039L157.32633086382768,-40.386287232168904L154.76961655844016,-1.8874476464705874z" style="fill:rgb(245,143,172)"/><path d="M135.31828410084145,39.25816608982194L178.98890484245638,148.4815132597466L195.31522587930448,109.0687242067674z" style="fill:rgb(234,114,195)"/><path d="M135.31828410084145,39.25816608982194L118.48167464301041,-95.1645379936736L79.6142618395785,-54.97418953490016zM-51.87224254336764,-181.10331795743025L-97.87641928274694,-160.5896934244709L-136.59270858306687,-130.41259948013857z" style="fill:rgb(83,212,212)"/><path d="M-81.83092088497862,56.71597198510507L-91.09492734366958,23.548853053189013L-155.23052299822083,-80.55525378998811z" style="fill:rgb(243,180,133)"/><path d="M-99.98231677004642,-151.27613497616693L-51.87224254336764,-181.10331795743025L-136.59270858306687,-130.41259948013857zM-99.98231677004642,-151.27613497616693L-52.32132177607789,-173.65782104065087L-51.87224254336764,-181.10331795743025zM-12.794970101922821,-240.01081759565892L-184.85628660910322,-153.13716282087606L-110.4727495501267,-170.94960414490518z" style="fill:rgb(83,212,212)"/><path d="M-51.56828327718945,132.804038958357L12.337311277475138,231.63049465350875L59.28262366148899,229.0849046770141z" style="fill:rgb(108,33,211)"/><path d="M-5.602107023713629,-188.68182357748336L-51.87224254336764,-181.10331795743025L-52.32132177607789,-173.65782104065087z" style="fill:rgb(83,212,212)"/><path d="M148.34358035176058,184.67181594344206L178.98890484245638,148.4815132597466L135.31828410084145,39.25816608982194z" style="fill:rgb(212,85,213)"/><path d="M32.46374368908099,-168.24349575429494L-4.499129537447278,-180.1353580337027L44.51272838035076,-69.36739589097348z" style="fill:rgb(42,41,169)"/><path d="M-137.2542648311188,-117.90687643473171L-99.98231677004642,-151.27613497616693L-136.59270858306687,-130.41259948013857z" style="fill:rgb(83,212,212)"/><path d="M-137.2542648311188,-117.90687643473171L-155.23052299822083,-80.55525378998811L-91.09492734366958,23.548853053189013z" style="fill:rgb(243,133,180)"/><path d="M-99.98231677004642,-151.27613497616693L-52.32132177607789,-173.65782104065087L-62.05094343731629,-193.75265163866905z" style="fill:rgb(158,48,222)"/><path d="M-145.9753814996788,37.67320586037759L-126.83531541433973,102.08979320379822L-51.56828327718945,132.804038958357zM-12.794970101922821,-240.01081759565892L-110.4727495501267,-170.94960414490518L-62.05094343731629,-193.75265163866905zM135.31828410084145,39.25816608982194L157.32633086382768,-40.386287232168904L118.48167464301041,-95.1645379936736z" style="fill:rgb(83,212,212)"/><path d="M-137.2542648311188,-117.90687643473171L-99.98231677004642,-151.27613497616693L-110.4727495501267,-170.94960414490518z" style="fill:rgb(212,85,213)"/><path d="M-62.05094343731629,-193.75265163866905L-110.4727495501267,-170.94960414490518L-99.98231677004642,-151.27613497616693z" style="fill:rgb(158,48,222)"/><path d="M135.31828410084145,39.25816608982194L79.6142618395785,-54.97418953490016L95.38976889323858,-24.445933476451298zM-48.88482906874815,76.39924883125904L-145.9753814996788,37.67320586037759L-51.56828327718945,132.804038958357zM-5.602107023713629,-188.68182357748336L-52.32132177607789,-173.65782104065087L-4.499129537447278,-180.1353580337027zM-184.85628660910322,-153.13716282087606L-148.55050016406676,-137.35898155590348L-110.4727495501267,-170.94960414490518z" style="fill:rgb(83,212,212)"/><path d="M4.264686479551154e-14,128.06412207791513L59.28262366148899,229.0849046770141L106.6809017098827,212.8050981730376z" style="fill:rgb(146,43,221)"/><path d="M-12.794970101922821,-240.01081759565892L-62.05094343731629,-193.75265163866905L-13.634076811706617,-200.78055509972233z" style="fill:rgb(83,212,212)"/><path d="M52.91702673928441,109.03666732791527L106.6809017098827,212.8050981730376L148.34358035176058,184.67181594344206z" style="fill:rgb(181,61,221)"/><path d="M-184.85628660910322,-153.13716282087606L-212.15164973249938,-118.25334726784031L-227.47309583823048,-82.28057495163443z" style="fill:rgb(83,212,212)"/><path d="M195.31522587930448,109.0687242067674L154.76961655844016,-1.8874476464705874L135.31828410084145,39.25816608982194z" style="fill:rgb(234,114,195)"/><path d="M-13.634076811706617,-200.78055509972233L-62.05094343731629,-193.75265163866905L-52.32132177607789,-173.65782104065087z" style="fill:rgb(96,32,206)"/><path d="M79.6142618395785,-54.97418953490016L95.38976889323858,-24.445933476451298L47.971728435444994,-139.15086385818307z" style="fill:rgb(11,74,121)"/><path d="M-110.4727495501267,-170.94960414490518L-148.55050016406676,-137.35898155590348L-137.2542648311188,-117.90687643473171z" style="fill:rgb(212,85,213)"/><path d="M-52.32132177607789,-173.65782104065087L-4.499129537447278,-180.1353580337027L-13.634076811706617,-200.78055509972233z" style="fill:rgb(96,32,206)"/><path d="M68.40236932274406,-231.487503657392L31.025117620818026,-240.96971594327223L-12.794970101922821,-240.01081759565892zM-155.23052299822083,-80.55525378998811L-137.2542648311188,-117.90687643473171L-136.59270858306687,-130.41259948013857z" style="fill:rgb(83,212,212)"/><path d="M12.337311277475138,231.63049465350875L-51.56828327718945,132.804038958357L-95.35880079651749,123.41037880108867z" style="fill:rgb(73,33,193)"/><path d="M-184.85628660910322,-153.13716282087606L-227.47309583823048,-82.28057495163443L-148.55050016406676,-137.35898155590348zM-5.602107023713629,-188.68182357748336L-4.499129537447278,-180.1353580337027L32.46374368908099,-168.24349575429494zM-136.59270858306687,-130.41259948013857L-161.6255026391831,-95.01227402373338L-167.59171576105993,-60.087954909730676z" style="fill:rgb(83,212,212)"/><path d="M-155.23052299822083,-80.55525378998811L-137.2542648311188,-117.90687643473171L-148.55050016406676,-137.35898155590348z" style="fill:rgb(243,133,180)"/><path d="M95.38976889323858,-24.445933476451298L85.28010440778759,15.205801784641237L135.31828410084145,39.25816608982194zM-155.23052299822083,-80.55525378998811L-136.59270858306687,-130.41259948013857L-167.59171576105993,-60.087954909730676zM-126.83531541433973,102.08979320379822L-95.35880079651749,123.41037880108867L-51.56828327718945,132.804038958357z" style="fill:rgb(83,212,212)"/><path d="M47.971728435444994,-139.15086385818307L32.46374368908099,-168.24349575429494L79.6142618395785,-54.97418953490016z" style="fill:rgb(11,74,121)"/><path d="M59.485915949029824,-124.57876366410736L106.7080262290102,-9.031824030542847L103.07932565596758,-44.128780719301545z" style="fill:rgb(247,158,158)"/><path d="M-155.23052299822083,-80.55525378998811L-147.6250999247347,-48.149795794951444L-81.83092088497862,56.71597198510507z" style="fill:rgb(243,180,133)"/><path d="M135.31828410084145,39.25816608982194L154.76961655844016,-1.8874476464705874L157.32633086382768,-40.386287232168904zM4.913773484365903e-15,75.29470411099197L-48.88482906874815,76.39924883125904L-51.56828327718945,132.804038958357z" style="fill:rgb(83,212,212)"/><path d="M59.28262366148899,229.0849046770141L4.264686479551154e-14,128.06412207791513L-51.56828327718945,132.804038958357z" style="fill:rgb(108,33,211)"/><path d="M23.641660937653718,-189.4367105280633L-13.634076811706617,-200.78055509972233L-4.499129537447278,-180.1353580337027z" style="fill:rgb(42,41,169)"/><path d="M57.24892516519968,-159.045525757825L33.35539417194511,-181.35251005644474L-5.602107023713629,-188.68182357748336z" style="fill:rgb(83,212,212)"/><path d="M135.31828410084145,39.25816608982194L100.07551700659333,77.99742382380822L148.34358035176058,184.67181594344206z" style="fill:rgb(212,85,213)"/><path d="M-148.55050016406676,-137.35898155590348L-167.21724017145186,-100.01192777574659L-155.23052299822083,-80.55525378998811z" style="fill:rgb(243,133,180)"/><path d="M-227.47309583823048,-82.28057495163443L-167.21724017145186,-100.01192777574659L-148.55050016406676,-137.35898155590348zM85.28010440778759,15.205801784641237L50.09520831997117,52.50271148621857L135.31828410084145,39.25816608982194zM57.24892516519968,-159.045525757825L-5.602107023713629,-188.68182357748336L32.46374368908099,-168.24349575429494z" style="fill:rgb(83,212,212)"/><path d="M-4.499129537447278,-180.1353580337027L32.46374368908099,-168.24349575429494L23.641660937653718,-189.4367105280633z" style="fill:rgb(42,41,169)"/><path d="M50.09520831997117,52.50271148621857L4.913773484365903e-15,75.29470411099197L-51.56828327718945,132.804038958357z" style="fill:rgb(83,212,212)"/><path d="M148.34358035176058,184.67181594344206L100.07551700659333,77.99742382380822L52.91702673928441,109.03666732791527z" style="fill:rgb(181,61,221)"/><path d="M106.6809017098827,212.8050981730376L52.91702673928441,109.03666732791527L4.264686479551154e-14,128.06412207791513z" style="fill:rgb(146,43,221)"/><path d="M108.09441644610091,-181.02722002067674L-12.794970101922821,-240.01081759565892L-13.634076811706617,-200.78055509972233z" style="fill:rgb(83,212,212)"/><path d="M-84.24195855668215,72.33772370295432L-48.24015597194369,87.8973214419388L-113.63371639513382,-18.83210018697829z" style="fill:rgb(52,37,178)"/><path d="M87.9019329896126,30.230075349850047L106.7080262290102,-9.031824030542847L59.485915949029824,-124.57876366410736z" style="fill:rgb(235,116,194)"/><path d="M108.09441644610091,-181.02722002067674L68.40236932274406,-231.487503657392L-12.794970101922821,-240.01081759565892zM50.09520831997117,52.50271148621857L-51.56828327718945,132.804038958357L135.31828410084145,39.25816608982194z" style="fill:rgb(83,212,212)"/><path d="M103.07932565596758,-44.128780719301545L57.24892516519968,-159.045525757825L59.485915949029824,-124.57876366410736z" style="fill:rgb(247,158,158)"/><path d="M-147.6250999247347,-48.149795794951444L-155.23052299822083,-80.55525378998811L-167.59171576105993,-60.087954909730676z" style="fill:rgb(83,212,212)"/><path d="M-147.6250999247347,-48.149795794951444L-155.23052299822083,-80.55525378998811L-167.21724017145186,-100.01192777574659z" style="fill:rgb(243,180,133)"/><path d="M-159.97766967590962,-67.83789198613779L-167.21724017145186,-100.01192777574659L-227.47309583823048,-82.28057495163443z" style="fill:rgb(83,212,212)"/><path d="M-113.63371639513382,-18.83210018697829L-48.24015597194369,87.8973214419388L2.8458190854290427e-14,85.46405096153852z" style="fill:rgb(100,32,208)"/><path d="M-51.56828327718945,132.804038958357L52.91702673928441,109.03666732791527L135.31828410084145,39.25816608982194zM57.24892516519968,-159.045525757825L32.46374368908099,-168.24349575429494L47.971728435444994,-139.15086385818307z" style="fill:rgb(83,212,212)"/><path d="M-113.63371639513382,-18.83210018697829L-151.28985458162407,-32.422368218560436L-84.24195855668215,72.33772370295432z" style="fill:rgb(52,37,178)"/><path d="M108.09441644610091,-181.02722002067674L-13.634076811706617,-200.78055509972233L23.641660937653718,-189.4367105280633z" style="fill:rgb(83,212,212)"/><path d="M39.05846397524478,-160.71217865512048L23.641660937653718,-189.4367105280633L32.46374368908099,-168.24349575429494z" style="fill:rgb(11,74,121)"/><path d="M49.418436906679766,64.60446541488027L87.9019329896126,30.230075349850047L37.117974946586116,-84.36873019300569z" style="fill:rgb(202,76,217)"/><path d="M-147.6250999247347,-48.149795794951444L-167.59171576105993,-60.087954909730676L-151.28985458162407,-32.422368218560436zM-51.56828327718945,132.804038958357L4.264686479551154e-14,128.06412207791513L52.91702673928441,109.03666732791527zM52.91702673928441,109.03666732791527L100.07551700659333,77.99742382380822L135.31828410084145,39.25816608982194z" style="fill:rgb(83,212,212)"/><path d="M-167.21724017145186,-100.01192777574659L-159.97766967590962,-67.83789198613779L-147.6250999247347,-48.149795794951444z" style="fill:rgb(243,180,133)"/><path d="M-227.47309583823048,-82.28057495163443L-228.25639657056473,-48.19741956619853L-212.66620558702408,-19.548852732332122z" style="fill:rgb(83,212,212)"/><path d="M-61.35066414661185,-23.956277378691354L2.8458190854290427e-14,85.46405096153852L49.418436906679766,64.60446541488027z" style="fill:rgb(154,46,222)"/><path d="M32.46374368908099,-168.24349575429494L47.971728435444994,-139.15086385818307L39.05846397524478,-160.71217865512048z" style="fill:rgb(11,74,121)"/><path d="M108.09441644610091,-181.02722002067674L95.40067693691138,-211.27977216287533L68.40236932274406,-231.487503657392zM-125.76980133784966,-50.45843181178372L-159.97766967590962,-67.83789198613779L-227.47309583823048,-82.28057495163443z" style="fill:rgb(83,212,212)"/><path d="M59.485915949029824,-124.57876366410736L37.117974946586116,-84.36873019300569L87.9019329896126,30.230075349850047z" style="fill:rgb(235,116,194)"/><path d="M-113.571599567821,-30.331797503517354L-147.6250999247347,-48.149795794951444L-151.28985458162407,-32.422368218560436zM37.117974946586116,-84.36873019300569L57.24892516519968,-159.045525757825L47.971728435444994,-139.15086385818307z" style="fill:rgb(83,212,212)"/><path d="M2.8458190854290427e-14,85.46405096153852L-61.35066414661185,-23.956277378691354L-113.63371639513382,-18.83210018697829z" style="fill:rgb(100,32,208)"/><path d="M37.117974946586116,-84.36873019300569L59.485915949029824,-124.57876366410736L57.24892516519968,-159.045525757825z" style="fill:rgb(83,212,212)"/><path d="M37.117974946586116,-84.36873019300569L-6.528561706786682,-47.70945757077138L49.418436906679766,64.60446541488027z" style="fill:rgb(202,76,217)"/><path d="M37.117974946586116,-84.36873019300569L47.971728435444994,-139.15086385818307L35.03159799058287,-99.1999735579675z" style="fill:rgb(83,212,212)"/><path d="M49.418436906679766,64.60446541488027L-6.528561706786682,-47.70945757077138L-61.35066414661185,-23.956277378691354z" style="fill:rgb(154,46,222)"/><path d="M-227.47309583823048,-82.28057495163443L-212.66620558702408,-19.548852732332122L-133.23727993698827,6.507463644242821zM-113.571599567821,-30.331797503517354L-151.28985458162407,-32.422368218560436L-61.35066414661185,-23.956277378691354zM23.641660937653718,-189.4367105280633L39.05846397524478,-160.71217865512048L79.47702411605381,-100.40485358727345zM-125.76980133784966,-50.45843181178372L-227.47309583823048,-82.28057495163443L-133.23727993698827,6.507463644242821zM-151.28985458162407,-32.422368218560436L-113.63371639513382,-18.83210018697829L-61.35066414661185,-23.956277378691354z" style="fill:rgb(83,212,212)"/><path d="M-180.3429158471697,-0.16257826034000028L-212.66620558702408,-19.548852732332122L-199.06855065286956,-0.27839173014268387z" style="fill:rgb(42,41,169)"/><path d="M79.47702411605381,-100.40485358727345L108.09441644610091,-181.02722002067674L23.641660937653718,-189.4367105280633z" style="fill:rgb(83,212,212)"/><path d="M115.89689976402188,-158.73783533193972L108.09441644610091,-181.02722002067674L103.27149064442916,-142.8159827704339z" style="fill:rgb(245,143,172)"/><path d="M-199.06855065286956,-0.27839173014268387L-166.82814835582425,19.48886187902264L-180.3429158471697,-0.16257826034000028z" style="fill:rgb(42,41,169)"/><path d="M-60.73412349492935,-34.17817323348494L-113.571599567821,-30.331797503517354L-61.35066414661185,-23.956277378691354zM37.117974946586116,-84.36873019300569L35.03159799058287,-99.1999735579675L-5.127498463123744,-59.88678209374652z" style="fill:rgb(83,212,212)"/><path d="M103.27149064442916,-142.8159827704339L111.46394543638446,-120.39671497013262L115.89689976402188,-158.73783533193972z" style="fill:rgb(245,143,172)"/><path d="M-61.35066414661185,-23.956277378691354L-5.127498463123744,-59.88678209374652L-60.73412349492935,-34.17817323348494zM-61.35066414661185,-23.956277378691354L37.117974946586116,-84.36873019300569L-5.127498463123744,-59.88678209374652zM39.05846397524478,-160.71217865512048L25.547096353860894,-120.79427392571868L79.47702411605381,-100.40485358727345zM-61.35066414661185,-23.956277378691354L-6.528561706786682,-47.70945757077138L37.117974946586116,-84.36873019300569z" style="fill:rgb(83,212,212)"/><path d="M-180.3429158471697,-0.16257826034000028L-166.82814835582425,19.48886187902264L-120.20748000006228,26.657321357154927z" style="fill:rgb(73,33,193)"/><path d="M-212.66620558702408,-19.548852732332122L-180.3429158471697,-0.16257826034000028L-133.23727993698827,6.507463644242821zM79.47702411605381,-100.40485358727345L103.27149064442916,-142.8159827704339L108.09441644610091,-181.02722002067674zM-72.22020791990846,-54.88177189388785L-125.76980133784966,-50.45843181178372L-133.23727993698827,6.507463644242821z" style="fill:rgb(83,212,212)"/><path d="M111.46394543638446,-120.39671497013262L103.27149064442916,-142.8159827704339L79.47702411605381,-100.40485358727345z" style="fill:rgb(234,114,195)"/><path d="M25.547096353860894,-120.79427392571868L-15.575034537663583,-81.14965143203823L79.47702411605381,-100.40485358727345z" style="fill:rgb(83,212,212)"/><path d="M79.47702411605381,-100.40485358727345L88.38855583365161,-78.11646773372854L111.46394543638446,-120.39671497013262z" style="fill:rgb(234,114,195)"/><path d="M-15.575034537663583,-81.14965143203823L-72.22020791990846,-54.88177189388785L-133.23727993698827,6.507463644242821z" style="fill:rgb(83,212,212)"/><path d="M-120.20748000006228,26.657321357154927L-133.23727993698827,6.507463644242821L-180.3429158471697,-0.16257826034000028z" style="fill:rgb(73,33,193)"/><path d="M-15.575034537663583,-81.14965143203823L-133.23727993698827,6.507463644242821L79.47702411605381,-100.40485358727345z" style="fill:rgb(83,212,212)"/><path d="M-133.23727993698827,6.507463644242821L-120.20748000006228,26.657321357154927L-63.94729790560523,19.094486785436697z" style="fill:rgb(108,33,211)"/><path d="M47.994719773809734,-37.10326470810568L88.38855583365161,-78.11646773372854L79.47702411605381,-100.40485358727345z" style="fill:rgb(212,85,213)"/><path d="M-63.94729790560523,19.094486785436697L-76.11856760297111,-1.6460176020166613L-133.23727993698827,6.507463644242821z" style="fill:rgb(108,33,211)"/><path d="M79.47702411605381,-100.40485358727345L38.080297157883855,-59.01454381548031L47.994719773809734,-37.10326470810568z" style="fill:rgb(212,85,213)"/><path d="M-76.11856760297111,-1.6460176020166613L-63.94729790560523,19.094486785436697L-5.17093978684526,-3.0776023754798207z" style="fill:rgb(146,43,221)"/><path d="M-133.23727993698827,6.507463644242821L-16.23802145076462,-24.4379275182355L79.47702411605381,-100.40485358727345z" style="fill:rgb(83,212,212)"/><path d="M-16.23802145076462,-24.4379275182355L-5.17093978684526,-3.0776023754798207L47.994719773809734,-37.10326470810568z" style="fill:rgb(181,61,221)"/><path d="M-133.23727993698827,6.507463644242821L-76.11856760297111,-1.6460176020166613L-16.23802145076462,-24.4379275182355zM-16.23802145076462,-24.4379275182355L38.080297157883855,-59.01454381548031L79.47702411605381,-100.40485358727345z" style="fill:rgb(83,212,212)"/><path d="M47.994719773809734,-37.10326470810568L38.080297157883855,-59.01454381548031L-16.23802145076462,-24.4379275182355z" style="fill:rgb(181,61,221)"/><path d="M-5.17093978684526,-3.0776023754798207L-16.23802145076462,-24.4379275182355L-76.11856760297111,-1.6460176020166613z" style="fill:rgb(146,43,221)"/></svg>
