<?xml version="1.0" encoding="UTF-8"?>
<!-- Generated by jsxcad -->
<!DOCTYPE svg PUBLIC "-//W3C//DTD SVG 1.1 Tiny//EN" "http://www.w3.org/Graphics/SVG/1.1/DTD/svg11-tiny.dtd">
<svg baseProfile="tiny" height="13.000000000000007mm" width="13.000000000000007mm" viewBox="0 0 13.000000000000007 13.000000000000007" version="1.1" stroke="black" stroke-width=".1" fill="none" xmlns="http://www.w3.org/2000/svg">
<path fill="#c0c0c0" stroke="#c0c0c0" d="M2.98176 9.3057 L2.11282 7.50134 L2.11282 5.49866 L2.98176 3.6943 L4.44712 2.52571 L4.54752 2.44564 L5.62724 2.1992 L6.5 2 L8.45248 2.44564 L9.87356 3.57891 L10.01824 3.6943 L10.88718 5.49866 L10.88718 7.20469 L10.88718 7.50134 L10.21386 8.8995 L10.01824 9.3057 L8.45248 10.55436 L6.5 11 L4.54752 10.55436 L3.75515 9.92246 M7.2 2.68756 L6.80228 2.581 L6.69883 2.55328 L6.5 2.5 L5.71143 2.7113 L5.2 2.84833 L5.08958 2.87792 L4.97438 2.90879 L4.5 3.0359 L4.04337 3.49253 L3.54833 3.98756 L3.0359 4.5 L2.68756 5.8 L2.5 6.5 L2.53398 6.62681 L2.66152 7.10282 L2.76831 7.50134 L2.81308 7.66845 L2.84833 7.8 L2.94644 8.16613 L3.0359 8.5 L3.98756 9.45167 L4.089 9.5531 L4.36221 9.82631 L4.5 9.9641 L5.55576 10.24699 L5.8 10.31244 L6.5 10.5 L7.44424 10.24699 L7.8 10.15167 L8.5 9.9641 L8.67104 9.79306 L9.44241 9.02169 L9.45167 9.01244 L9.9641 8.5 L10.05356 8.16613 L10.23169 7.50134 L10.31244 7.2 L10.3471 7.07065 L10.40504 6.8544 L10.5 6.5 L10.15167 5.2 L9.9641 4.5 L9.26557 3.80147 L9.01244 3.54833 L8.9041 3.44 L8.70802 3.24392 L8.64327 3.17917 L8.5 3.0359 z"/>
<path fill="#c0c0c0" stroke="#c0c0c0" d="M10.213859399105617 8.899499710624516 L10.018242962536164 9.305701426682223 L10.018242962536164 9.305701426682223 L10.213859399105617 8.899499710624516 L10.887178075175605 7.501339073053425 L10.887178075175605 7.501339073053425 z"/>
<path fill="#c0c0c0" stroke="#c0c0c0" d="M9.96410080756888 8.50000080756888 L9.96410080756888 8.50000080756888 L9.45166580756888 9.01243580756888 L9.44241080756888 9.021690807568879 L8.671040807568879 9.79306080756888 L8.50000080756888 9.96410080756888 L8.50000080756888 9.96410080756888 L8.671040807568879 9.79306080756888 L9.01243580756888 9.45166580756888 L9.44241080756888 9.021690807568879 z"/>
<path fill="#c0c0c0" stroke="#c0c0c0" d="M10.887175604818209 7.20469 L10.887175604818209 7.50134 L10.887175604818209 7.50134 L10.887175604818209 7.20469 L10.887175604818209 5.49866 L10.887175604818209 5.49866 z"/>
<path fill="#c0c0c0" stroke="#c0c0c0" d="M8.500000807568876 3.0358991924311223 L8.500000807568876 3.0358991924311223 L8.643270807568877 3.179169192431122 L8.708020807568877 3.243919192431122 L8.904100807568875 3.4399991924311224 L9.012435807568876 3.5483341924311222 L9.265570807568876 3.8014691924311226 L9.964100807568876 4.4999991924311225 L9.964100807568876 4.4999991924311225 L9.451665807568876 3.9875641924311225 L9.265570807568876 3.8014691924311226 L8.904100807568875 3.4399991924311224 L8.708020807568877 3.243919192431122 L8.643270807568877 3.179169192431122 z"/>
<path fill="#c0c0c0" stroke="#c0c0c0" d="M8.452479822351231 2.4456407783301097 L8.452479822351231 2.4456407783301097 L6.499999999999999 2.0000000000000027 L6.499999999999999 2.0000000000000027 z"/>
<path fill="#c0c0c0" stroke="#c0c0c0" d="M2.500000000000002 6.499999999999999 L2.500000000000002 6.499999999999999 L2.533978728389705 6.626810340726951 L2.661524788390371 7.102818716954667 L2.687564137633098 7.199998891324553 L2.768308361955301 7.501340438912754 L2.8130848832915865 7.668448691525962 L2.94643830936724 8.166130453003683 L3.035898493055962 8.500000403784437 L3.035898493055962 8.500000403784437 L2.94643830936724 8.166130453003683 L2.8483336855498855 7.7999990124598835 L2.8130848832915865 7.668448691525962 L2.768308361955301 7.501340438912754 L2.661524788390371 7.102818716954667 L2.533978728389705 6.626810340726951 z"/>
<path fill="#c0c0c0" stroke="#c0c0c0" d="M4.4471194900348605 2.525709360523942 L4.547521279883666 2.4456416049233556 L4.547521279883666 2.4456416049233556 L4.4471194900348605 2.525709360523942 L2.9817573476954697 3.6942966741153156 L2.9817573476954697 3.6942966741153156 z"/>
<path fill="#c0c0c0" stroke="#c0c0c0" d="M4.499999192431122 9.964100807568878 L4.499999192431122 9.964100807568878 L4.362209192431122 9.826310807568877 L4.088999192431122 9.553100807568878 L3.987564192431122 9.451665807568878 L3.0358991924311223 8.500000807568876 L3.0358991924311223 8.500000807568876 L3.5483341924311222 9.012435807568876 L4.088999192431122 9.553100807568878 L4.362209192431122 9.826310807568877 z"/>
<path fill="#c0c0c0" stroke="#c0c0c0" d="M3.7551483498103333 9.92246206927239 L2.9817573476954653 9.30570332588469 L2.9817573476954653 9.30570332588469 L3.7551483498103333 9.92246206927239 L4.5475212798836635 10.554358395076648 L4.5475212798836635 10.554358395076648 z"/>
<path fill="#c0c0c0" stroke="#c0c0c0" d="M5.627240385008633 2.1992016868330433 L6.5 2.0000000000000036 L6.5 2.0000000000000036 L5.627240385008633 2.1992016868330433 L4.547520177648768 2.445640778330113 L4.547520177648768 2.445640778330113 z"/>
<path fill="#c0c0c0" stroke="#c0c0c0" d="M9.873557022048802 3.578913734232688 L10.018242652304533 3.694296674115312 L10.018242652304533 3.694296674115312 L9.873557022048802 3.578913734232688 L8.452478720116334 2.4456416049233516 L8.452478720116334 2.4456416049233516 z"/>
<path fill="#c0c0c0" stroke="#c0c0c0" d="M6.500000000000001 2.500000000000004 L6.500000000000001 2.500000000000004 L5.800001108675447 2.687564137633099 L5.711429173668853 2.711296916090178 L5.089580224997176 2.8779208397008964 L4.974379661739193 2.9087887375934836 L4.499999596215562 3.0358984930559636 L4.499999596215562 3.0358984930559636 L4.974379661739193 2.9087887375934836 L5.089580224997176 2.8779208397008964 L5.200000987540116 2.8483336855498873 L5.711429173668853 2.711296916090178 z"/>
<path fill="#c0c0c0" stroke="#c0c0c0" d="M9.964101506944044 8.500000403784439 L9.964101506944044 8.500000403784439 L10.053561690632765 8.166130453003685 L10.15166631445012 7.799999012459886 L10.231691638044705 7.501340438912756 L10.347095142119324 7.070648698334796 L10.405038886171688 6.854399701550603 L10.500000000000004 6.500000000000001 L10.500000000000004 6.500000000000001 L10.405038886171688 6.854399701550603 L10.347095142119324 7.070648698334796 L10.312435862366907 7.1999988913245545 L10.231691638044705 7.501340438912756 L10.053561690632765 8.166130453003685 z"/>
<path fill="#c0c0c0" stroke="#c0c0c0" d="M10.01824296253616 3.694298573317778 L10.01824296253616 3.694298573317778 L10.887178075175603 5.498660926946575 L10.887178075175603 5.498660926946575 z"/>
<path fill="#c0c0c0" stroke="#c0c0c0" d="M2.1128219248244022 5.498660926946577 L2.1128219248244022 5.498660926946577 L2.9817570374638436 3.6942985733177798 L2.9817570374638436 3.6942985733177798 z"/>
<path fill="#c0c0c0" stroke="#c0c0c0" d="M8.452478720116337 10.554358395076653 L8.452478720116337 10.554358395076653 L10.018242652304536 9.305703325884691 L10.018242652304536 9.305703325884691 z"/>
<path fill="#c0c0c0" stroke="#c0c0c0" d="M4.547520177648766 10.554359221669895 L4.547520177648766 10.554359221669895 L6.499999999999999 11.000000000000002 L6.499999999999999 11.000000000000002 z"/>
<path fill="#c0c0c0" stroke="#c0c0c0" d="M4.54752 2.44564 L4.44712 2.52571 L2.98176 3.6943 L2.11282 5.49866 L2.11282 7.50134 L2.98176 9.3057 L3.75515 9.92246 L4.54752 10.55436 L6.5 11 L8.45248 10.55436 L10.01824 9.3057 L10.21386 8.8995 L10.88718 7.50134 L10.88718 7.20469 L10.88718 5.49866 L10.01824 3.6943 L9.87356 3.57891 L8.45248 2.44564 L6.5 2 L5.62724 2.1992 M8.67104 9.79306 L8.5 9.9641 L7.44424 10.24699 L7.2 10.31244 L6.5 10.5 L5.55576 10.24699 L5.2 10.15167 L4.5 9.9641 L4.36221 9.82631 L4.089 9.5531 L3.54833 9.01244 L3.0359 8.5 L2.94644 8.16613 L2.81308 7.66845 L2.76831 7.50134 L2.68756 7.2 L2.66152 7.10282 L2.53398 6.62681 L2.5 6.5 L2.84833 5.2 L3.0359 4.5 L3.98756 3.54833 L4.04337 3.49253 L4.5 3.0359 L4.97438 2.90879 L5.08958 2.87792 L5.71143 2.7113 L5.8 2.68756 L6.5 2.5 L6.69883 2.55328 L6.80228 2.581 L7.8 2.84833 L8.5 3.0359 L8.64327 3.17917 L8.70802 3.24392 L8.9041 3.44 L9.26557 3.80147 L9.45167 3.98756 L9.9641 4.5 L10.31244 5.8 L10.5 6.5 L10.40504 6.8544 L10.3471 7.07065 L10.23169 7.50134 L10.15167 7.8 L10.05356 8.16613 L9.9641 8.5 L9.44241 9.02169 L9.01244 9.45167 z"/>
<path fill="#c0c0c0" stroke="#c0c0c0" d="M6.500000000000001 11.000000000000004 L6.500000000000001 11.000000000000004 L8.452479822351231 10.554359221669895 L8.452479822351231 10.554359221669895 z"/>
<path fill="#c0c0c0" stroke="#c0c0c0" d="M2.1128243951817964 5.498659999999999 L2.1128243951817987 7.501339999999999 L2.1128243951817987 7.501339999999999 L2.1128243951817964 5.498659999999999 z"/>
<path fill="#c0c0c0" stroke="#c0c0c0" d="M2.1128219248243982 7.5013390730534235 L2.9817570374638436 9.30570142668222 L2.9817570374638436 9.30570142668222 L2.1128219248243982 7.5013390730534235 z"/>
<path fill="#c0c0c0" stroke="#c0c0c0" d="M6.500000000000001 10.500000000000004 L6.500000000000001 10.500000000000004 L7.1999988913245545 10.312435862366907 L7.444240413634709 10.246991543705754 L8.500000403784439 9.964101506944044 L8.500000403784439 9.964101506944044 L7.799999012459886 10.15166631445012 L7.444240413634709 10.246991543705754 z"/>
<path fill="#c0c0c0" stroke="#c0c0c0" d="M6.499999999999999 2.500000000000002 L6.499999999999999 2.500000000000002 L6.698830915517229 2.5532765832431847 L6.802281079527979 2.5809959711467325 L7.199998891324553 2.6875641376330974 L8.500000403784437 3.035898493055962 L8.500000403784437 3.035898493055962 L7.7999990124598835 2.8483336855498855 L6.802281079527979 2.5809959711467325 L6.698830915517229 2.5532765832431847 z"/>
<path fill="#c0c0c0" stroke="#c0c0c0" d="M9.964101506944042 4.49999959621556 L9.964101506944042 4.49999959621556 L10.151666314450118 5.200000987540114 L10.500000000000002 6.499999999999999 L10.500000000000002 6.499999999999999 L10.312435862366906 5.8000011086754455 z"/>
<path fill="#c0c0c0" stroke="#c0c0c0" d="M2.500000000000004 6.500000000000001 L2.500000000000004 6.500000000000001 L2.687564137633099 5.800001108675447 L3.0358984930559636 4.499999596215562 L3.0358984930559636 4.499999596215562 L2.848333685549887 5.200000987540116 z"/>
<path fill="#c0c0c0" stroke="#c0c0c0" d="M4.499999192431126 3.0358991924311263 L4.499999192431126 3.0358991924311263 L4.043369192431126 3.492529192431126 L3.9875641924311265 3.5483341924311262 L3.035899192431126 4.499999192431126 L3.035899192431126 4.499999192431126 L3.5483341924311262 3.9875641924311265 L4.043369192431126 3.492529192431126 z"/>
<path fill="#c0c0c0" stroke="#c0c0c0" d="M6.499999999999999 10.500000000000002 L6.499999999999999 10.500000000000002 L5.8000011086754455 10.312435862366906 L5.55575958636529 10.246991543705752 L4.49999959621556 9.964101506944042 L4.49999959621556 9.964101506944042 L5.200000987540114 10.151666314450118 L5.55575958636529 10.246991543705752 z"/>
<path fill="#c0c0c0" stroke="#c0c0c0" d="M4.49139 12.68187 L2.6794 11.75861 L1.24139 10.3206 L0.31813 8.50861 L0 6.5 L0.31813 4.49139 L1.24139 2.6794 L2.6794 1.24139 L4.49139 0.31813 L6.5 0 L8.50861 0.31813 L10.3206 1.24139 L11.75861 2.6794 L12.68187 4.49139 L13 6.5 L12.68187 8.50861 L11.75861 10.3206 L10.3206 11.75861 L8.50861 12.68187 L6.5 13 M6.5 2.5 L4.97438 2.90879 L4.5 3.0359 L3.0359 4.5 L2.5 6.5 L3.0359 8.5 L4.36221 9.82631 L4.5 9.9641 L6.5 10.5 L8.5 9.9641 L9.44241 9.02169 L9.9641 8.5 L10.40504 6.8544 L10.5 6.5 L9.9641 4.5 L8.64327 3.17917 L8.5 3.0359 L6.80228 2.581 z"/>
<path fill="#c0c0c0" stroke="#c0c0c0" d="M4.491390397191944 12.68186749222876 L4.491390397191944 12.68186749222876 L6.499999999999999 13.000000000000002 L6.499999999999999 13.000000000000002 z"/>
<path fill="#c0c0c0" stroke="#c0c0c0" d="M8.508609602808054 12.68186749222876 L8.508609602808054 12.68186749222876 L6.5 13.000000000000004 L6.5 13.000000000000004 z"/>
<path fill="#c0c0c0" stroke="#c0c0c0" d="M10.320601040728409 11.758612042544508 L10.320601040728409 11.758612042544508 L8.50860902596438 12.681868088347464 L8.50860902596438 12.681868088347464 z"/>
<path fill="#c0c0c0" stroke="#c0c0c0" d="M11.75861230166912 10.32060230166912 L11.75861230166912 10.32060230166912 L10.32060230166912 11.75861230166912 L10.32060230166912 11.75861230166912 z"/>
<path fill="#c0c0c0" stroke="#c0c0c0" d="M11.758612042544508 10.320601040728409 L11.758612042544508 10.320601040728409 L12.681868088347464 8.50860902596438 L12.681868088347464 8.50860902596438 z"/>
<path fill="#c0c0c0" stroke="#c0c0c0" d="M12.681867492228758 4.491390397191944 L12.681867492228758 4.491390397191944 L13.000000000000002 6.499999999999999 L13.000000000000002 6.499999999999999 z"/>
<path fill="#c0c0c0" stroke="#c0c0c0" d="M13.000000000000004 6.5 L13.000000000000004 6.5 L12.68186749222876 8.508609602808054 L12.68186749222876 8.508609602808054 z"/>
<path fill="#c0c0c0" stroke="#c0c0c0" d="M10.320602301669116 1.2413876983308836 L10.320602301669116 1.2413876983308836 L11.758612301669116 2.6793976983308827 L11.758612301669116 2.6793976983308827 z"/>
<path fill="#c0c0c0" stroke="#c0c0c0" d="M11.758612042544506 2.6793989592715914 L11.758612042544506 2.6793989592715914 L12.68186808834746 4.491390974035618 L12.68186808834746 4.491390974035618 z"/>
<path fill="#c0c0c0" stroke="#c0c0c0" d="M8.508609025964379 0.31813191165254007 L8.508609025964379 0.31813191165254007 L10.320601040728405 1.2413879574554967 L10.320601040728405 1.2413879574554967 z"/>
<path fill="#c0c0c0" stroke="#c0c0c0" d="M6.5 4.076192997595723e-15 L6.5 4.076192997595723e-15 L4.491390397191945 0.31813250777124663 L4.491390397191945 0.31813250777124663 z"/>
<path fill="#c0c0c0" stroke="#c0c0c0" d="M2.679398959271595 1.2413879574554996 L2.679398959271595 1.2413879574554996 L4.491390974035621 0.31813191165254295 L4.491390974035621 0.31813191165254295 z"/>
<path fill="#c0c0c0" stroke="#c0c0c0" d="M6.499999999999999 2.8553521759589193e-15 L6.499999999999999 2.8553521759589193e-15 L8.508609602808052 0.31813250777124613 L8.508609602808052 0.31813250777124613 z"/>
<path fill="#c0c0c0" stroke="#c0c0c0" d="M0.3181319116525431 4.491390974035621 L0.3181319116525431 4.491390974035621 L1.2413879574554991 2.6793989592715945 L1.2413879574554991 2.6793989592715945 z"/>
<path fill="#c0c0c0" stroke="#c0c0c0" d="M1.2413876983308867 2.6793976983308863 L1.2413876983308867 2.6793976983308863 L2.679397698330887 1.2413876983308871 L2.679397698330887 1.2413876983308871 z"/>
<path fill="#c0c0c0" stroke="#c0c0c0" d="M3.8917051194870586e-15 6.5 L3.8917051194870586e-15 6.5 L0.3181325077712473 4.491390397191945 L0.3181325077712473 4.491390397191945 z"/>
<path fill="#c0c0c0" stroke="#c0c0c0" d="M0.31813250777124585 8.508609602808052 L0.31813250777124585 8.508609602808052 L3.0398400540675854e-15 6.499999999999999 L3.0398400540675854e-15 6.499999999999999 z"/>
<path fill="#c0c0c0" stroke="#c0c0c0" d="M1.241387957455497 10.320601040728405 L1.241387957455497 10.320601040728405 L0.31813191165253935 8.508609025964379 L0.31813191165253935 8.508609025964379 z"/>
<path fill="#c0c0c0" stroke="#c0c0c0" d="M2.6793976983308823 11.758612301669116 L2.6793976983308823 11.758612301669116 L1.2413876983308838 10.320602301669116 L1.2413876983308838 10.320602301669116 z"/>
<path fill="#c0c0c0" stroke="#c0c0c0" d="M2.6793989592715914 11.758612042544506 L2.6793989592715914 11.758612042544506 L4.4913909740356175 12.681868088347462 L4.4913909740356175 12.681868088347462 z"/>
<path fill="#c0c0c0" stroke="#c0c0c0" d="M1.24139 10.3206 L2.6794 11.75861 L4.49139 12.68187 L6.5 13 L8.50861 12.68187 L10.3206 11.75861 L11.75861 10.3206 L12.68187 8.50861 L13 6.5 L12.68187 4.49139 L11.75861 2.6794 L10.3206 1.24139 L8.50861 0.31813 L6.5 0 L4.49139 0.31813 L2.6794 1.24139 L1.24139 2.6794 L0.31813 4.49139 L0 6.5 L0.31813 8.50861 M2.68756 5.8 L3.0359 4.5 L3.54833 3.98756 L4.5 3.0359 L4.97438 2.90879 L5.2 2.84833 L6.5 2.5 L6.80228 2.581 L7.2 2.68756 L8.5 3.0359 L8.64327 3.17917 L9.01244 3.54833 L9.9641 4.5 L10.15167 5.2 L10.5 6.5 L10.40504 6.8544 L10.31244 7.2 L9.9641 8.5 L9.45167 9.01244 L9.44241 9.02169 L8.5 9.9641 L7.8 10.15167 L6.5 10.5 L5.8 10.31244 L4.5 9.9641 L4.36221 9.82631 L3.98756 9.45167 L3.0359 8.5 L2.84833 7.8 L2.5 6.5 z"/>
<path fill="#c0c0c0" stroke="#c0c0c0" d="M3.0358984930559636 4.499999596215562 L3.0358984930559636 4.499999596215562 L2.687564137633099 5.800001108675447 L2.500000000000004 6.500000000000001 L2.500000000000004 6.500000000000001 z"/>
<path fill="#c0c0c0" stroke="#c0c0c0" d="M6.499999999999999 2.500000000000002 L6.499999999999999 2.500000000000002 L6.802281079527979 2.5809959711467325 L8.500000403784437 3.035898493055962 L8.500000403784437 3.035898493055962 L7.199998891324553 2.6875641376330974 L6.802281079527979 2.5809959711467325 z"/>
<path fill="#c0c0c0" stroke="#c0c0c0" d="M8.500000807568876 3.0358991924311223 L8.500000807568876 3.0358991924311223 L8.643270807568877 3.179169192431122 L9.964100807568876 4.4999991924311225 L9.964100807568876 4.4999991924311225 L9.012435807568876 3.5483341924311222 L8.643270807568877 3.179169192431122 z"/>
<path fill="#c0c0c0" stroke="#c0c0c0" d="M6.500000000000001 2.500000000000004 L6.500000000000001 2.500000000000004 L5.200000987540116 2.8483336855498873 L4.974379661739193 2.9087887375934836 L4.499999596215562 3.0358984930559636 L4.499999596215562 3.0358984930559636 L4.974379661739193 2.9087887375934836 z"/>
<path fill="#c0c0c0" stroke="#c0c0c0" d="M9.964101506944044 8.500000403784439 L9.964101506944044 8.500000403784439 L10.312435862366907 7.1999988913245545 L10.405038886171688 6.854399701550603 L10.500000000000004 6.500000000000001 L10.500000000000004 6.500000000000001 L10.405038886171688 6.854399701550603 z"/>
<path fill="#c0c0c0" stroke="#c0c0c0" d="M8.50000080756888 9.96410080756888 L8.50000080756888 9.96410080756888 L9.44241080756888 9.021690807568879 L9.45166580756888 9.01243580756888 L9.96410080756888 8.50000080756888 L9.96410080756888 8.50000080756888 L9.44241080756888 9.021690807568879 z"/>
<path fill="#c0c0c0" stroke="#c0c0c0" d="M3.0358991924311223 8.500000807568876 L3.0358991924311223 8.500000807568876 L3.987564192431122 9.451665807568878 L4.362209192431122 9.826310807568877 L4.499999192431122 9.964100807568878 L4.499999192431122 9.964100807568878 L4.362209192431122 9.826310807568877 z"/>
<path fill="#c0c0c0" stroke="#c0c0c0" d="M4.499999192431126 3.0358991924311263 L4.499999192431126 3.0358991924311263 L3.5483341924311262 3.9875641924311265 L3.035899192431126 4.499999192431126 L3.035899192431126 4.499999192431126 z"/>
<path fill="#c0c0c0" stroke="#c0c0c0" d="M3.035898493055962 8.500000403784437 L3.035898493055962 8.500000403784437 L2.500000000000002 6.499999999999999 L2.500000000000002 6.499999999999999 L2.8483336855498855 7.7999990124598835 z"/>
<path fill="#c0c0c0" stroke="#c0c0c0" d="M9.964101506944042 4.49999959621556 L9.964101506944042 4.49999959621556 L10.500000000000002 6.499999999999999 L10.500000000000002 6.499999999999999 L10.151666314450118 5.200000987540114 z"/>
<path fill="#c0c0c0" stroke="#c0c0c0" d="M6.499999999999999 10.500000000000002 L6.499999999999999 10.500000000000002 L4.49999959621556 9.964101506944042 L4.49999959621556 9.964101506944042 L5.8000011086754455 10.312435862366906 z"/>
<path fill="#c0c0c0" stroke="#c0c0c0" d="M8.500000403784439 9.964101506944044 L8.500000403784439 9.964101506944044 L6.500000000000001 10.500000000000004 L6.500000000000001 10.500000000000004 L7.799999012459886 10.15166631445012 z"/>
<path fill="#c0c0c0" stroke="#c0c0c0" d="M4.49139 12.68187 L2.6794 11.75861 L1.24139 10.3206 L0.31813 8.50861 L0 6.5 L0.31813 4.49139 L1.24139 2.6794 L2.6794 1.24139 L4.49139 0.31813 L6.5 0 L8.50861 0.31813 L10.3206 1.24139 L11.75861 2.6794 L12.68187 4.49139 L13 6.5 L12.68187 8.50861 L11.75861 10.3206 L10.3206 11.75861 L8.50861 12.68187 L6.5 13 M9.01244 9.45167 L9.44241 9.02169 L9.9641 8.5 L10.15167 7.8 L10.40504 6.8544 L10.5 6.5 L10.31244 5.8 L9.9641 4.5 L9.45167 3.98756 L8.64327 3.17917 L8.5 3.0359 L7.8 2.84833 L6.80228 2.581 L6.5 2.5 L5.8 2.68756 L4.97438 2.90879 L4.5 3.0359 L3.98756 3.54833 L3.0359 4.5 L2.84833 5.2 L2.5 6.5 L2.68756 7.2 L3.0359 8.5 L3.54833 9.01244 L4.36221 9.82631 L4.5 9.9641 L5.2 10.15167 L6.5 10.5 L7.2 10.31244 L8.5 9.9641 z"/>
<path fill="#c0c0c0" stroke="#c0c0c0" d="M8.508609602808054 12.68186749222876 L8.508609602808054 12.68186749222876 L6.5 13.000000000000004 L6.5 13.000000000000004 z"/>
<path fill="#c0c0c0" stroke="#c0c0c0" d="M4.491390397191944 12.68186749222876 L4.491390397191944 12.68186749222876 L6.499999999999999 13.000000000000002 L6.499999999999999 13.000000000000002 z"/>
<path fill="#c0c0c0" stroke="#c0c0c0" d="M10.320601040728409 11.758612042544508 L10.320601040728409 11.758612042544508 L8.50860902596438 12.681868088347464 L8.50860902596438 12.681868088347464 z"/>
<path fill="#c0c0c0" stroke="#c0c0c0" d="M11.75861230166912 10.32060230166912 L11.75861230166912 10.32060230166912 L10.32060230166912 11.75861230166912 L10.32060230166912 11.75861230166912 z"/>
<path fill="#c0c0c0" stroke="#c0c0c0" d="M11.758612042544508 10.320601040728409 L11.758612042544508 10.320601040728409 L12.681868088347464 8.50860902596438 L12.681868088347464 8.50860902596438 z"/>
<path fill="#c0c0c0" stroke="#c0c0c0" d="M12.681867492228758 4.491390397191944 L12.681867492228758 4.491390397191944 L13.000000000000002 6.499999999999999 L13.000000000000002 6.499999999999999 z"/>
<path fill="#c0c0c0" stroke="#c0c0c0" d="M13.000000000000004 6.5 L13.000000000000004 6.5 L12.68186749222876 8.508609602808054 L12.68186749222876 8.508609602808054 z"/>
<path fill="#c0c0c0" stroke="#c0c0c0" d="M9.964101506944044 8.500000403784439 L9.964101506944044 8.500000403784439 L10.124871054860831 7.900000282649108 L10.405038886171688 6.854399701550603 L10.500000000000004 6.500000000000001 L10.500000000000004 6.500000000000001 L10.405038886171688 6.854399701550603 L10.15166631445012 7.799999012459886 z"/>
<path fill="#c0c0c0" stroke="#c0c0c0" d="M10.320602301669116 1.2413876983308836 L10.320602301669116 1.2413876983308836 L11.758612301669116 2.6793976983308827 L11.758612301669116 2.6793976983308827 z"/>
<path fill="#c0c0c0" stroke="#c0c0c0" d="M11.758612042544506 2.6793989592715914 L11.758612042544506 2.6793989592715914 L12.68186808834746 4.491390974035618 L12.68186808834746 4.491390974035618 z"/>
<path fill="#c0c0c0" stroke="#c0c0c0" d="M8.508609025964379 0.31813191165254007 L8.508609025964379 0.31813191165254007 L10.320601040728405 1.2413879574554967 L10.320601040728405 1.2413879574554967 z"/>
<path fill="#c0c0c0" stroke="#c0c0c0" d="M2.679398959271595 1.2413879574554996 L2.679398959271595 1.2413879574554996 L4.491390974035621 0.31813191165254295 L4.491390974035621 0.31813191165254295 z"/>
<path fill="#c0c0c0" stroke="#c0c0c0" d="M6.5 4.076192997595723e-15 L6.5 4.076192997595723e-15 L4.491390397191945 0.31813250777124663 L4.491390397191945 0.31813250777124663 z"/>
<path fill="#c0c0c0" stroke="#c0c0c0" d="M6.499999999999999 2.8553521759589193e-15 L6.499999999999999 2.8553521759589193e-15 L8.508609602808052 0.31813250777124613 L8.508609602808052 0.31813250777124613 z"/>
<path fill="#c0c0c0" stroke="#c0c0c0" d="M0.3181319116525431 4.491390974035621 L0.3181319116525431 4.491390974035621 L1.2413879574554991 2.6793989592715945 L1.2413879574554991 2.6793989592715945 z"/>
<path fill="#c0c0c0" stroke="#c0c0c0" d="M1.2413876983308867 2.6793976983308863 L1.2413876983308867 2.6793976983308863 L2.679397698330887 1.2413876983308871 L2.679397698330887 1.2413876983308871 z"/>
<path fill="#c0c0c0" stroke="#c0c0c0" d="M3.8917051194870586e-15 6.5 L3.8917051194870586e-15 6.5 L0.3181325077712473 4.491390397191945 L0.3181325077712473 4.491390397191945 z"/>
<path fill="#c0c0c0" stroke="#c0c0c0" d="M0.31813250777124585 8.508609602808052 L0.31813250777124585 8.508609602808052 L3.0398400540675854e-15 6.499999999999999 L3.0398400540675854e-15 6.499999999999999 z"/>
<path fill="#c0c0c0" stroke="#c0c0c0" d="M1.241387957455497 10.320601040728405 L1.241387957455497 10.320601040728405 L0.31813191165253935 8.508609025964379 L0.31813191165253935 8.508609025964379 z"/>
<path fill="#c0c0c0" stroke="#c0c0c0" d="M2.6793976983308823 11.758612301669116 L2.6793976983308823 11.758612301669116 L1.2413876983308838 10.320602301669116 L1.2413876983308838 10.320602301669116 z"/>
<path fill="#c0c0c0" stroke="#c0c0c0" d="M2.6793989592715914 11.758612042544506 L2.6793989592715914 11.758612042544506 L4.4913909740356175 12.681868088347462 L4.4913909740356175 12.681868088347462 z"/>
<path fill="#c0c0c0" stroke="#c0c0c0" d="M1.24139 10.3206 L2.6794 11.75861 L4.49139 12.68187 L6.5 13 L8.50861 12.68187 L10.3206 11.75861 L11.75861 10.3206 L12.68187 8.50861 L13 6.5 L12.68187 4.49139 L11.75861 2.6794 L10.3206 1.24139 L8.50861 0.31813 L6.5 0 L4.49139 0.31813 L2.6794 1.24139 L1.24139 2.6794 L0.31813 4.49139 L0 6.5 L0.31813 8.50861 M2.5 6.5 L2.87513 5.1 L3.0359 4.5 L4.06077 3.47513 L4.5 3.0359 L4.97438 2.90879 L5.9 2.66077 L6.5 2.5 L6.80228 2.581 L7.9 2.87513 L8.5 3.0359 L8.64327 3.17917 L9.52487 4.06077 L9.9641 4.5 L10.33923 5.9 L10.5 6.5 L10.40504 6.8544 L10.12487 7.9 L9.9641 8.5 L9.44241 9.02169 L8.93923 9.52487 L8.5 9.9641 L7.1 10.33923 L6.5 10.5 L5.1 10.12487 L4.5 9.9641 L4.36221 9.82631 L3.47513 8.93923 L3.0359 8.5 L2.66077 7.1 z"/>
<path fill="#c0c0c0" stroke="#c0c0c0" d="M8.500000807568876 3.0358991924311223 L8.500000807568876 3.0358991924311223 L8.643270807568877 3.179169192431122 L9.451665807568876 3.9875641924311225 L9.964100807568876 4.4999991924311225 L9.964100807568876 4.4999991924311225 L9.524870807568876 4.060769192431122 L8.643270807568877 3.179169192431122 z"/>
<path fill="#c0c0c0" stroke="#c0c0c0" d="M6.499999999999999 2.500000000000002 L6.499999999999999 2.500000000000002 L6.802281079527979 2.5809959711467325 L7.7999990124598835 2.8483336855498855 L8.500000403784437 3.035898493055962 L8.500000403784437 3.035898493055962 L7.900000282649106 2.875128945139174 L6.802281079527979 2.5809959711467325 z"/>
<path fill="#c0c0c0" stroke="#c0c0c0" d="M2.500000000000004 6.500000000000001 L2.500000000000004 6.500000000000001 L2.848333685549887 5.200000987540116 L3.0358984930559636 4.499999596215562 L3.0358984930559636 4.499999596215562 L2.8751289451391755 5.099999717350893 z"/>
<path fill="#c0c0c0" stroke="#c0c0c0" d="M4.499999596215562 3.0358984930559636 L4.499999596215562 3.0358984930559636 L4.974379661739193 2.9087887375934836 L5.800001108675447 2.687564137633099 L6.500000000000001 2.500000000000004 L6.500000000000001 2.500000000000004 L5.899999878864669 2.6607695479167917 L4.974379661739193 2.9087887375934836 z"/>
<path fill="#c0c0c0" stroke="#c0c0c0" d="M8.50000080756888 9.96410080756888 L8.50000080756888 9.96410080756888 L8.93923080756888 9.52487080756888 L9.44241080756888 9.021690807568879 L9.96410080756888 8.50000080756888 L9.96410080756888 8.50000080756888 L9.44241080756888 9.021690807568879 L9.01243580756888 9.45166580756888 z"/>
<path fill="#c0c0c0" stroke="#c0c0c0" d="M3.0358991924311223 8.500000807568876 L3.0358991924311223 8.500000807568876 L3.4751291924311225 8.939230807568876 L4.362209192431122 9.826310807568877 L4.499999192431122 9.964100807568878 L4.499999192431122 9.964100807568878 L4.362209192431122 9.826310807568877 L3.5483341924311222 9.012435807568876 z"/>
<path fill="#c0c0c0" stroke="#c0c0c0" d="M2.500000000000002 6.499999999999999 L2.500000000000002 6.499999999999999 L2.6607695479167903 7.10000012113533 L3.035898493055962 8.500000403784437 L3.035898493055962 8.500000403784437 L2.687564137633098 7.199998891324553 z"/>
<path fill="#c0c0c0" stroke="#c0c0c0" d="M3.035899192431126 4.499999192431126 L3.035899192431126 4.499999192431126 L3.9875641924311265 3.5483341924311262 L4.499999192431126 3.0358991924311263 L4.499999192431126 3.0358991924311263 L4.060769192431126 3.4751291924311265 z"/>
<path fill="#c0c0c0" stroke="#c0c0c0" d="M9.964101506944042 4.49999959621556 L9.964101506944042 4.49999959621556 L10.312435862366906 5.8000011086754455 L10.500000000000002 6.499999999999999 L10.500000000000002 6.499999999999999 L10.339230452083214 5.8999998788646675 z"/>
<path fill="#c0c0c0" stroke="#c0c0c0" d="M8.500000403784439 9.964101506944044 L8.500000403784439 9.964101506944044 L7.1999988913245545 10.312435862366907 L6.500000000000001 10.500000000000004 L6.500000000000001 10.500000000000004 L7.100000121135332 10.339230452083216 z"/>
<path fill="#c0c0c0" stroke="#c0c0c0" d="M4.49999959621556 9.964101506944042 L4.49999959621556 9.964101506944042 L5.099999717350891 10.12487105486083 L6.499999999999999 10.500000000000002 L6.499999999999999 10.500000000000002 L5.200000987540114 10.151666314450118 z"/>
</svg>